PathFileType	4	(X/Y/Z)	C:/Users/dbak576/Desktop/Duncan Bakke Modelling Files/H20s1/Static_H20s1.trc	
DataRate	CameraRate	NumFrames	NumMarkers	Units	OrigDataRate	OrigDataStartFrame	OrigNumFrames	
200.00	200.00	5	61	mm	200.00	801	672	
Frame#	Time	LFHD			RFHD			LBHD			RBHD			C7			T10			CLAV			STRN			RBack			LASI			RASI			LPSI			RPSI			RACR1			RUA1			RElbow			RElbowM			RFA1			RWRR			RWRU			RCAR			LACR1			LUA1			LElbow			LElbowM			LFA1			LWRR			LWRU			LCAR			RTH1			RTH3			RTH2			RTH4			RLFC			RMFC			RTB1			RTB3			RTB2			RTB4			RLMAL			RMMAL			RCAL			RMT1			RMT5			RToe			LTH1			LTH3			LTH2			LTH4			LLFC			LMFC			LTB1			LTB3			LTB2			LTB4			LLMAL			LMMAL			LCAL			LMT1			LMT5			LToe			
		X1	Y1	Z1	X2	Y2	Z2	X3	Y3	Z3	X4	Y4	Z4	X5	Y5	Z5	X6	Y6	Z6	X7	Y7	Z7	X8	Y8	Z8	X9	Y9	Z9	X10	Y10	Z10	X11	Y11	Z11	X12	Y12	Z12	X13	Y13	Z13	X14	Y14	Z14	X15	Y15	Z15	X16	Y16	Z16	X17	Y17	Z17	X18	Y18	Z18	X19	Y19	Z19	X20	Y20	Z20	X21	Y21	Z21	X22	Y22	Z22	X23	Y23	Z23	X24	Y24	Z24	X25	Y25	Z25	X26	Y26	Z26	X27	Y27	Z27	X28	Y28	Z28	X29	Y29	Z29	X30	Y30	Z30	X31	Y31	Z31	X32	Y32	Z32	X33	Y33	Z33	X34	Y34	Z34	X35	Y35	Z35	X36	Y36	Z36	X37	Y37	Z37	X38	Y38	Z38	X39	Y39	Z39	X40	Y40	Z40	X41	Y41	Z41	X42	Y42	Z42	X43	Y43	Z43	X44	Y44	Z44	X45	Y45	Z45	X46	Y46	Z46	X47	Y47	Z47	X48	Y48	Z48	X49	Y49	Z49	X50	Y50	Z50	X51	Y51	Z51	X52	Y52	Z52	X53	Y53	Z53	X54	Y54	Z54	X55	Y55	Z55	X56	Y56	Z56	X57	Y57	Z57	X58	Y58	Z58	X59	Y59	Z59	X60	Y60	Z60	X61	Y61	Z61	

421	2.100	-25.96362	-341.37396	1651.39526	55.11561	-344.79980	1656.35632	-58.32996	-516.86261	1600.59985	79.98899	-523.51239	1599.13281	9.36831	-531.02228	1455.50525	-8.45064	-559.87061	1135.02771	1.19602	-378.26443	1402.07617	-4.38754	-339.30856	1238.69104	91.95302	-591.79712	1354.97144	-157.95610	-360.38953	967.05292	146.56488	-368.98245	960.18268	-68.97742	-538.48767	977.42926	34.68035	-548.22186	976.88000	121.11292	-494.67242	1459.11426	291.36377	-480.34540	1414.70410	413.26376	-447.29013	1392.04553	395.57535	-381.14169	1335.44531	540.53876	-397.72821	1439.38245	647.01404	-302.90714	1495.51111	657.62323	-324.33060	1421.84692	713.12445	-310.49478	1466.06482	-132.41379	-502.02780	1465.18347	-311.96875	-482.75925	1415.65198	-426.63229	-446.70743	1390.47754	-394.82352	-407.80423	1331.13794	-554.35339	-392.44333	1466.54932	-637.68640	-308.64566	1508.10181	-656.57190	-314.04004	1430.96228	-708.97156	-317.99622	1492.94556	203.18806	-442.80441	764.98285	201.42294	-444.83102	575.91754	185.15408	-373.43390	671.66016	205.45509	-443.41171	668.26538	196.79642	-448.57523	472.02896	65.82103	-463.75928	439.19882	132.68134	-413.23822	369.57559	155.60963	-440.92648	182.24582	215.80179	-446.77911	287.16699	146.31401	-424.66022	278.21722	199.61992	-512.93713	88.45306	116.11165	-476.56940	92.26564	159.78203	-558.99268	35.00872	140.68198	-352.07654	38.67276	227.06258	-389.36798	33.57422	167.39206	-295.48236	26.13833	-210.35249	-409.97186	770.30914	-207.25354	-430.42813	583.41290	-174.83701	-353.86560	665.43427	-213.95345	-420.92178	672.70862	-203.80905	-453.06363	469.46716	-78.82686	-474.45621	435.36133	-160.13908	-420.64774	371.08789	-170.66032	-463.59012	190.16557	-228.48151	-476.83365	292.30127	-164.99974	-443.69882	281.03226	-204.53378	-547.44122	79.92027	-120.18374	-509.61340	85.85926	-160.21754	-593.85468	32.86222	-143.58630	-379.57306	35.95508	-233.16093	-413.19485	31.96029	-160.45564	-333.02365	26.87989 
422	2.105	-25.99245	-341.37338	1651.39026	55.14666	-344.81467	1656.32910	-58.32549	-516.86725	1600.62329	79.98645	-523.51697	1599.13867	9.34747	-531.05011	1455.51660	-8.42581	-559.85553	1135.16443	1.19177	-378.26840	1402.08179	-4.40711	-339.34857	1238.67664	91.95417	-591.79688	1354.96802	-157.95757	-360.38974	967.04321	146.54536	-368.98639	960.17261	-68.96623	-538.48157	977.41907	34.68136	-548.22449	976.87360	121.11260	-494.67084	1459.11462	291.40219	-480.33917	1414.71338	413.24466	-447.29611	1392.05066	395.56769	-381.14615	1335.44397	540.51459	-397.72708	1439.40491	646.99335	-302.87845	1495.47729	657.63165	-324.32175	1421.87427	713.05389	-310.45633	1466.07617	-132.43745	-502.01984	1465.19287	-311.92780	-482.75424	1415.62463	-426.62463	-446.69028	1390.47290	-394.85934	-407.76907	1331.10852	-554.37231	-392.45880	1466.56287	-637.69183	-308.64740	1508.10779	-656.53613	-314.01724	1430.97668	-708.96674	-318.00668	1493.00647	203.18010	-442.83609	764.98157	201.42542	-444.83319	575.90924	185.13322	-373.42789	671.63947	205.42863	-443.41541	668.24200	196.83121	-448.57654	472.01166	65.75818	-463.85052	439.17947	132.63721	-413.20813	369.54266	155.60132	-440.91803	182.25517	215.81454	-446.77356	287.17096	146.32773	-424.67056	278.22824	199.62030	-512.93414	88.45638	116.13007	-476.57266	92.26070	159.76920	-558.99359	35.00491	140.66446	-352.06155	38.66148	227.06537	-389.36761	33.57989	167.40930	-295.50552	26.11530	-210.38470	-409.94098	770.29364	-207.25035	-430.43039	583.41736	-174.83904	-353.85489	665.44702	-213.92918	-420.91666	672.70013	-203.80556	-453.06613	469.46246	-78.82710	-474.48950	435.37607	-160.14960	-420.66745	371.07391	-170.62769	-463.60550	190.19368	-228.48512	-476.89340	292.21622	-164.97931	-443.70746	281.03705	-204.52002	-547.43506	79.91589	-120.16219	-509.61981	85.87722	-160.16925	-593.81091	32.88555	-143.60782	-379.55383	35.95090	-233.08762	-413.15860	31.99990	-160.46140	-333.02444	26.88096 
423	2.110	-26.01788	-341.38110	1651.40198	55.14240	-344.81345	1656.33655	-58.31907	-516.86755	1600.63879	79.99078	-523.56763	1599.16443	9.34929	-531.04919	1455.51721	-8.39665	-559.83929	1135.27466	1.19809	-378.26407	1402.08350	-4.38915	-339.42889	1238.68274	91.95491	-591.79620	1354.96594	-157.95401	-360.38651	967.05249	146.56255	-368.98373	960.17969	-68.95730	-538.47705	977.41461	34.69284	-548.24994	976.86853	121.11424	-494.67117	1459.12341	291.39606	-480.32877	1414.75696	413.25876	-447.28543	1392.06372	395.52496	-381.14255	1335.49573	540.49988	-397.69763	1439.43079	646.99860	-302.85788	1495.49377	657.63654	-324.31796	1421.88660	712.99872	-310.39706	1466.05505	-132.44681	-502.01990	1465.18970	-311.94089	-482.76190	1415.62927	-426.50269	-446.61188	1390.41687	-394.85394	-407.72723	1331.13257	-554.37903	-392.46695	1466.61023	-637.66058	-308.64752	1508.13892	-656.53387	-313.97476	1431.01477	-708.95148	-317.97482	1493.02332	203.18346	-442.86353	764.98419	201.42229	-444.83029	575.90857	185.11713	-373.43848	671.64404	205.33406	-443.37820	668.11560	196.88271	-448.57498	472.02744	65.81429	-463.83762	439.20145	132.59828	-413.22485	369.50409	155.60152	-440.92273	182.26013	215.81760	-446.76544	287.17371	146.32796	-424.67899	278.22610	199.61809	-512.93915	88.44141	116.11025	-476.58292	92.27174	159.76668	-558.97870	34.99633	140.65407	-352.04001	38.62925	227.06781	-389.35904	33.57106	167.39111	-295.47226	26.12404	-210.38792	-409.92816	770.27399	-207.25224	-430.43048	583.42328	-174.83043	-353.85764	665.44208	-213.94472	-420.91818	672.71643	-203.81277	-453.06287	469.45642	-78.82945	-474.53842	435.36169	-160.11403	-420.67273	371.06763	-170.61145	-463.60077	190.19359	-228.39891	-476.86990	292.22888	-164.97012	-443.71051	281.03925	-204.53052	-547.42822	79.91945	-120.17239	-509.59689	85.83408	-160.19151	-593.83582	32.86895	-143.59627	-379.56021	35.96679	-233.01445	-413.16183	32.02065	-160.44951	-333.03638	26.87248 
424	2.115	-26.04733	-341.36057	1651.41431	55.12358	-344.81091	1656.34265	-58.31810	-516.86725	1600.62817	79.99456	-523.54602	1599.16931	9.30632	-531.06696	1455.52454	-8.38368	-559.83215	1135.29883	1.16791	-378.25620	1402.11340	-4.33875	-339.52240	1238.69690	91.95533	-591.79572	1354.95496	-157.93257	-360.38098	967.05414	146.58647	-368.98230	960.18964	-68.95789	-538.47687	977.41736	34.68799	-548.24390	976.88220	121.11494	-494.67334	1459.12769	291.37775	-480.32678	1414.77393	413.27701	-447.27515	1392.06921	395.48093	-381.12714	1335.53418	540.48804	-397.70972	1439.46265	647.18060	-303.02347	1495.62012	657.58008	-324.26874	1421.91736	712.96021	-310.34634	1466.05664	-132.43289	-502.01981	1465.20166	-311.95261	-482.76144	1415.64172	-426.38492	-446.54282	1390.36316	-394.82413	-407.69135	1331.15723	-554.38330	-392.46774	1466.62512	-637.65576	-308.64709	1508.16443	-656.53363	-313.87970	1430.97314	-708.93134	-317.95572	1493.08057	203.19308	-442.87418	764.98865	201.41905	-444.83621	575.88849	185.16574	-373.45905	671.63110	205.16411	-443.34283	667.90637	196.90039	-448.57886	472.04443	65.80875	-463.84454	439.17004	132.59486	-413.24524	369.49402	155.58922	-440.92120	182.24484	215.81424	-446.76038	287.17401	146.33423	-424.70181	278.20282	199.61732	-512.93719	88.44512	116.10227	-476.58200	92.27449	159.75165	-558.94836	34.99666	140.67778	-352.06973	38.64648	227.02904	-389.36325	33.56745	167.38591	-295.44525	26.15664	-210.35329	-409.99356	770.29053	-207.25478	-430.42993	583.42560	-174.82114	-353.86044	665.43134	-213.95105	-420.95105	672.72626	-203.81316	-453.06042	469.46198	-78.82402	-474.58310	435.35745	-160.09360	-420.67303	371.07410	-170.61313	-463.59085	190.17542	-228.35078	-476.83105	292.24634	-164.94409	-443.70898	281.03763	-204.52060	-547.42926	79.93757	-120.18959	-509.59241	85.83073	-160.21744	-593.86908	32.86343	-143.57556	-379.57553	35.98120	-232.96205	-413.18167	32.06232	-160.45911	-333.03229	26.88388 
425	2.120	-26.05196	-341.35037	1651.40515	55.09967	-344.81128	1656.34717	-58.32680	-516.87024	1600.62720	80.00127	-523.51593	1599.16602	9.29985	-531.04297	1455.52808	-8.43479	-559.86481	1135.09021	1.17267	-378.25293	1402.09961	-4.28545	-339.60062	1238.69592	91.96572	-591.79681	1354.94409	-157.94067	-360.38251	967.05408	146.60779	-369.01758	960.21796	-68.96480	-538.47644	977.43616	34.69210	-548.25568	976.87683	121.12992	-494.65372	1459.14355	291.40677	-480.31274	1414.74670	413.27432	-447.25317	1392.12341	395.44101	-381.06836	1335.56921	540.47827	-397.68143	1439.47974	647.18835	-302.92300	1495.65088	657.54889	-324.21890	1421.94263	712.95471	-310.32190	1466.10498	-132.42815	-502.01932	1465.20215	-312.05527	-482.79440	1415.69287	-426.62448	-446.68414	1390.46387	-394.81995	-407.67731	1331.14148	-554.38251	-392.46646	1466.62207	-637.66064	-308.64777	1508.17236	-656.56744	-313.92462	1431.08215	-708.91888	-317.96494	1493.12427	203.21355	-442.88464	764.99719	201.42241	-444.84045	575.87012	185.19055	-373.47729	671.64923	205.20146	-443.37256	667.96887	196.79825	-448.59308	472.03262	65.85664	-463.78525	439.18817	132.60002	-413.25449	369.52057	155.59702	-440.92712	182.24905	215.80934	-446.75925	287.17245	146.31958	-424.72012	278.19400	199.62195	-512.93665	88.42682	115.71985	-476.68164	92.40427	159.76642	-558.95471	34.98785	140.70366	-352.05667	38.64778	227.04573	-389.39716	33.59153	167.36792	-295.43378	26.15563	-210.37888	-409.98193	770.29730	-207.25548	-430.43018	583.42584	-174.80162	-353.88177	665.42224	-213.86633	-420.97308	672.73828	-203.81715	-453.05948	469.46011	-78.81729	-474.60229	435.34213	-160.08369	-420.67255	371.06808	-170.61389	-463.58960	190.19458	-228.37164	-476.82993	292.27155	-164.97795	-443.70901	281.04544	-204.52240	-547.42224	79.91669	-120.16679	-509.58255	85.79917	-160.17873	-593.81055	32.88101	-143.57182	-379.58212	35.97528	-233.09120	-413.22934	31.98016	-160.45084	-333.03790	26.87781 
